HIERARCHY
ROOT Hips
{
	OFFSET -14.64140 90.27770 -84.91600
	CHANNELS 6 Xposition Yposition Zposition Zrotation Xrotation Yrotation
	JOINT Spine
	{
		OFFSET 0.00000 13.20850 -1.60436
		CHANNELS 3 Zrotation Xrotation Yrotation
		JOINT Spine1
		{
			OFFSET 0.00000 8.61716 0.00000
			CHANNELS 3 Zrotation Xrotation Yrotation
			JOINT Spine2
			{
				OFFSET 0.00000 8.61717 0.00000
				CHANNELS 3 Zrotation Xrotation Yrotation
				JOINT Spine3
				{
					OFFSET 0.00000 8.61717 0.00000
					CHANNELS 3 Zrotation Xrotation Yrotation
					JOINT Neck
					{
						OFFSET 0.00000 11.07920 1.10792
						CHANNELS 3 Zrotation Xrotation Yrotation
						JOINT Neck1
						{
							OFFSET 0.00000 7.08032 0.00000
							CHANNELS 3 Zrotation Xrotation Yrotation
							JOINT Head
							{
								OFFSET 0.00000 7.08031 0.00000
								CHANNELS 3 Zrotation Xrotation Yrotation
								End site
								{
									OFFSET 0.00000 0.00000 0.00000
								}
							}
						}
					}
					JOINT RightShoulder
					{
						OFFSET -0.01000 7.91373 5.19711
						CHANNELS 3 Zrotation Xrotation Yrotation
						JOINT RightArm
						{
							OFFSET -18.41580 0.00000 0.00000
							CHANNELS 3 Zrotation Xrotation Yrotation
							JOINT RightForeArm
							{
								OFFSET -29.11090 0.00000 0.00000
								CHANNELS 3 Zrotation Xrotation Yrotation
								JOINT RightHand
								{
									OFFSET -24.65040 0.00000 0.00000
									CHANNELS 3 Zrotation Xrotation Yrotation
									JOINT RightHandThumb1
									{
										OFFSET -5.35114 -0.85590 3.97906
										CHANNELS 3 Zrotation Xrotation Yrotation
										JOINT RightHandThumb2
										{
											OFFSET -4.52789 0.00000 0.00000
											CHANNELS 3 Zrotation Xrotation Yrotation
											JOINT RightHandThumb3
											{
												OFFSET -2.46976 0.00000 0.00000
												CHANNELS 3 Zrotation Xrotation Yrotation
												End site
												{
													OFFSET 0.00000 0.00000 0.00000
												}
											}
										}
									}
									JOINT RightHandIndex1
									{
										OFFSET -14.26970 0.00000 2.88139
										CHANNELS 3 Zrotation Xrotation Yrotation
										JOINT RightHandIndex2
										{
											OFFSET -5.48836 0.00000 0.00000
											CHANNELS 3 Zrotation Xrotation Yrotation
											JOINT RightHandIndex3
											{
												OFFSET -3.01859 0.00000 0.00000
												CHANNELS 3 Zrotation Xrotation Yrotation
												End site
												{
													OFFSET 0.00000 0.00000 0.00000
												}
											}
										}
									}
									JOINT RightHandMiddle1
									{
										OFFSET -14.26970 0.00000 -0.09147
										CHANNELS 3 Zrotation Xrotation Yrotation
										JOINT RightHandMiddle2
										{
											OFFSET -6.17441 0.00000 0.00000
											CHANNELS 3 Zrotation Xrotation Yrotation
											JOINT RightHandMiddle3
											{
												OFFSET -3.56743 0.00000 0.00000
												CHANNELS 3 Zrotation Xrotation Yrotation
												End site
												{
													OFFSET 0.00000 0.00000 0.00000
												}
											}
										}
									}
									JOINT RightHandRing1
									{
										OFFSET -12.69180 0.00000 -3.06433
										CHANNELS 3 Zrotation Xrotation Yrotation
										JOINT RightHandRing2
										{
											OFFSET -5.62556 0.00000 0.00000
											CHANNELS 3 Zrotation Xrotation Yrotation
											JOINT RightHandRing3
											{
												OFFSET -3.56744 0.00000 0.00000
												CHANNELS 3 Zrotation Xrotation Yrotation
												End site
												{
													OFFSET 0.00000 0.00000 0.00000
												}
											}
										}
									}
									JOINT RightHandPinky1
									{
										OFFSET -11.11390 0.00000 -6.03719
										CHANNELS 3 Zrotation Xrotation Yrotation
										JOINT RightHandPinky2
										{
											OFFSET -4.52789 0.00000 0.00000
											CHANNELS 3 Zrotation Xrotation Yrotation
											JOINT RightHandPinky3
											{
												OFFSET -2.46976 0.00000 0.00000
												CHANNELS 3 Zrotation Xrotation Yrotation
												End site
												{
													OFFSET 0.00000 0.00000 0.00000
												}
											}
										}
									}
								}
							}
						}
					}
					JOINT LeftShoulder
					{
						OFFSET 0.01000 7.91373 5.19711
						CHANNELS 3 Zrotation Xrotation Yrotation
						JOINT LeftArm
						{
							OFFSET 18.41580 0.00000 0.00000
							CHANNELS 3 Zrotation Xrotation Yrotation
							JOINT LeftForeArm
							{
								OFFSET 29.11090 0.00000 0.00000
								CHANNELS 3 Zrotation Xrotation Yrotation
								JOINT LeftHand
								{
									OFFSET 24.65040 0.00000 0.00000
									CHANNELS 3 Zrotation Xrotation Yrotation
									JOINT LeftHandThumb1
									{
										OFFSET 5.35114 -0.85590 3.97906
										CHANNELS 3 Zrotation Xrotation Yrotation
										JOINT LeftHandThumb2
										{
											OFFSET 4.52789 0.00000 0.00000
											CHANNELS 3 Zrotation Xrotation Yrotation
											JOINT LeftHandThumb3
											{
												OFFSET 2.46977 0.00000 0.00000
												CHANNELS 3 Zrotation Xrotation Yrotation
												End site
												{
													OFFSET 0.00000 0.00000 0.00000
												}
											}
										}
									}
									JOINT LeftHandIndex1
									{
										OFFSET 14.26970 0.00000 2.88139
										CHANNELS 3 Zrotation Xrotation Yrotation
										JOINT LeftHandIndex2
										{
											OFFSET 5.48836 0.00000 0.00000
											CHANNELS 3 Zrotation Xrotation Yrotation
											JOINT LeftHandIndex3
											{
												OFFSET 3.01859 0.00000 0.00000
												CHANNELS 3 Zrotation Xrotation Yrotation
												End site
												{
													OFFSET 0.00000 0.00000 0.00000
												}
											}
										}
									}
									JOINT LeftHandMiddle1
									{
										OFFSET 14.26970 0.00000 -0.09147
										CHANNELS 3 Zrotation Xrotation Yrotation
										JOINT LeftHandMiddle2
										{
											OFFSET 6.17440 0.00000 0.00000
											CHANNELS 3 Zrotation Xrotation Yrotation
											JOINT LeftHandMiddle3
											{
												OFFSET 3.56744 0.00000 0.00000
												CHANNELS 3 Zrotation Xrotation Yrotation
												End site
												{
													OFFSET 0.00000 0.00000 0.00000
												}
											}
										}
									}
									JOINT LeftHandRing1
									{
										OFFSET 12.69180 0.00000 -3.06433
										CHANNELS 3 Zrotation Xrotation Yrotation
										JOINT LeftHandRing2
										{
											OFFSET 5.62556 0.00000 0.00000
											CHANNELS 3 Zrotation Xrotation Yrotation
											JOINT LeftHandRing3
											{
												OFFSET 3.56744 0.00000 0.00000
												CHANNELS 3 Zrotation Xrotation Yrotation
												End site
												{
													OFFSET 0.00000 0.00000 0.00000
												}
											}
										}
									}
									JOINT LeftHandPinky1
									{
										OFFSET 11.11390 0.00000 -6.03719
										CHANNELS 3 Zrotation Xrotation Yrotation
										JOINT LeftHandPinky2
										{
											OFFSET 4.52789 0.00000 0.00000
											CHANNELS 3 Zrotation Xrotation Yrotation
											JOINT LeftHandPinky3
											{
												OFFSET 2.46976 0.00000 0.00000
												CHANNELS 3 Zrotation Xrotation Yrotation
												End site
												{
													OFFSET 0.00000 0.00000 0.00000
												}
											}
										}
									}
								}
							}
						}
					}
					JOINT pCube4
					{
						OFFSET 0.00000 10.91090 1.10792
						CHANNELS 3 Zrotation Xrotation Yrotation
						End site
						{
							OFFSET 0.00000 0.00000 0.00000
						}
					}
				}
			}
		}
	}
	JOINT RightUpLeg
	{
		OFFSET -9.98441 0.00000 0.00000
		CHANNELS 3 Zrotation Xrotation Yrotation
		JOINT RightLeg
		{
			OFFSET 0.00000 -42.11790 0.00000
			CHANNELS 3 Zrotation Xrotation Yrotation
			JOINT RightFoot
			{
				OFFSET 0.00000 -45.00020 -0.00001
				CHANNELS 3 Zrotation Xrotation Yrotation
				JOINT RightForeFoot
				{
					OFFSET 0.00000 -3.74820 0.00000
					CHANNELS 3 Zrotation Xrotation Yrotation
					JOINT RightToeBase
					{
						OFFSET 0.00000 0.06325 14.43120
						CHANNELS 3 Zrotation Xrotation Yrotation
						End site
						{
							OFFSET 0.00000 0.00000 0.00000
						}
					}
				}
			}
		}
	}
	JOINT LeftUpLeg
	{
		OFFSET 9.98441 0.00000 0.00000
		CHANNELS 3 Zrotation Xrotation Yrotation
		JOINT LeftLeg
		{
			OFFSET 0.00000 -42.11800 0.00000
			CHANNELS 3 Zrotation Xrotation Yrotation
			JOINT LeftFoot
			{
				OFFSET 0.00000 -45.00070 0.00000
				CHANNELS 3 Zrotation Xrotation Yrotation
				JOINT LeftForeFoot
				{
					OFFSET 0.00000 -3.74824 0.00000
					CHANNELS 3 Zrotation Xrotation Yrotation
					JOINT LeftToeBase
					{
						OFFSET 0.00000 0.06325 14.43110
						CHANNELS 3 Zrotation Xrotation Yrotation
						End site
						{
							OFFSET 0.00000 0.00000 0.00000
						}
					}
				}
			}
		}
	}
}
MOTION
Frames: 4
Frame Time: 0.050000
-0.005711522878465091 0.0432156173429996 0.01881161094808426 -0.009508143395063237 -0.029077508547059695 0.022207828480716653 2.901683303295937 3.7501167960151434 -1.726416270156872 -0.7099347864523073 3.517049414728703 0.3843231935636362 -0.7950341427320201 -1.075164925460438 1.625994823846713 -0.8780741627784728 -0.6365886877717873 -0.21062350099510282 0.33055980725798867 11.882003327374466 -2.043068051861189 0.15255270390523526 -0.9706631252905757 -6.13436561950482 0.899604162309474 -17.099495858381804 -0.5525400385344068 -9.643370738225082 3.4882554125408407 -15.742367969529294 76.28278975447496 -9.06398755181083 23.402667437298565 22.22166427693794 4.8362398410146525 80.1493842400469 17.187767356482766 -0.4056046115533599 -5.985833808772108 4.511272930568511 -0.10500051512760937 -1.5573227341428784 -0.010253737299811867 0.0007561040396966902 -56.19175524167644 -0.019595305960218953 -0.0261012134608925 -56.25285535320832 -38.76386404097951 0.013686976534178328 -0.04696452825243085 0.004284206022114141 0.03901396902537962 0.002611478789997104 -0.002630939954990406 -0.019863690737776052 0.001123313451595745 -36.66729649769919 0.036349193544336904 -0.04913288267781497 0.032643286432287304 0.040636583640174015 0.007153935534227886 -0.03456421167863899 0.0187744721418854 0.01714583847243533 -19.75529684734007 -0.032216755508140175 -0.02960170171492662 -0.0017244830119442782 -0.03917888562028985 0.044123164787196065 -0.02691397761570991 -0.004987279274934936 -0.025310649019016557 24.01732163609831 -0.042959046684032554 0.029303516662821813 28.825277239550292 0.02837627761241186 0.005910843158670773 28.874739030024088 -0.029201154855846352 0.0496777071811536 7.770046482411491 2.0285496488492614 13.772513252875562 -74.98841665344993 7.252215123885848 -14.06972199149561 -11.158521371294755 12.634687004136122 -54.477365893001306 -21.333452378682793 2.249052224755796 -0.6619881391981044 -0.4591909938209725 0.08560206997834087 -8.132097712922135 0.027119750849823234 -0.01957356344175517 44.53206155689006 0.03304733767872221 -0.04521587044936554 44.5773239027237 12.486492014137534 0.037126348984039825 0.03661560598904119 0.02119858387509998 0.005166789733333927 0.03132899622866631 0.02979290670676153 -0.03703558477938561 0.017745200036443785 11.08746329057132 -0.01646487956641036 0.025439923534441324 -0.04148135634414453 0.012924705241406511 0.03383292369433034 -0.014908543508412173 0.03277364392789777 0.04872623426613791 4.804444998653539 0.007686440833727375 -0.005695482272552227 -0.0409113502790077 -0.019537920917057694 0.0026781269505489536 0.03882437668997557 -0.02758917083042543 0.03674670681412667 -5.562899349216991 -0.019989976116010177 -0.04790775413348184 -6.745250793860397 -0.02627142261469626 -0.02126870205461095 -6.765844191926103 -0.007090919308539165 -0.007527397251165067 -0.00913910200400884 0.0198740220553368 0.0034235393319794094 8.00552557892784 3.45879550274872 -19.260440174309114 0.03597632589072177 10.42149246555759 -0.005822661362067612 -5.640591571423124 -15.66113362507865 3.1794511818812756 0.04806466068851578 0.008274552342449242 -0.008319312944160367 0.034746539532805286 4.705810163415579 -0.032196770918761844 12.49779550800897 -8.192409199479771 6.921265592153694 -0.02838723869503488 46.3521092953121 -0.007345042695988369 -4.348772148480805 -14.736029842949442 -3.7932073803720434 -0.012366984213395965 0.015236406735828599 -0.023566027699125837 -0.04811038733674615 -10.723550403223316 0.00020906488038709525 
0.0012116096556597329 -0.049046742180696414 -0.011003148353748006 0.04647429387304921 -0.04132886092567106 -0.049283646573532736 2.6087149646571683 3.671628299719567 -1.7247350621828472 -0.6866306390529769 3.55449054209505 0.3830610829402961 -0.8379621086709701 -1.1487871318025171 1.8333670767173118 -0.8326098236938555 -0.6544059416249557 -0.23558979707804495 0.44962877154962744 12.109122268172108 -2.2366242590043734 0.17008014403006533 -0.8349967338915719 -6.9782670285135895 0.9867604518373888 -16.968975215750866 -0.631241116392619 -9.715805509828854 3.5362549318229126 -15.546934002858894 75.38714312792047 -10.5529138180736 25.825907320742264 22.209866197971216 4.90602838359869 80.91021402590007 16.67495757250817 -0.45946124515689696 -5.490071392263516 4.492735270136662 -0.14524647585196712 -1.6050382834356696 -0.032892564219385564 -0.022081759246423804 -56.2393304940002 -0.027309221564453468 0.012780385028862945 -56.26578096491742 -38.75757439912687 0.025587470543873923 -0.025742449627065782 -0.0019787827957493437 -0.028266887906800847 0.016185467656895883 -0.028718749304776647 0.03706964303799525 0.03575892756686716 -36.69690905980189 -0.016065748332318764 -0.00547979464570508 0.041450758744189915 -0.0017662847312099337 -0.03953124685839293 -0.020924750819617685 0.02970047422753017 -0.016655077679079963 -19.740093995846266 -0.026542478196273107 0.04060297400576983 0.03167959197313056 -0.021642418123298986 0.02890302967836187 0.04731154588779092 0.01999271152746175 -0.016539633947308827 24.031289984546657 -0.01391204209883245 0.01664967385029273 28.842231351677672 -0.0269489428617144 0.043360947953210875 28.85693797924246 -0.00030256859858062053 0.04771990233298512 7.470893869045672 2.009878204829346 13.706697974881955 -75.0749136082732 5.884557598390674 -14.226385290328828 -8.764239352801042 14.544281557142813 -52.61519539841298 -20.822731946260358 4.603256363614535 -2.1281210608105705 -0.4434747285562209 0.08503027145329412 -8.15409732285869 -0.023582700020422925 -0.042623530767441575 44.51960340243622 0.03059090271080099 -0.008675493617800881 44.569478905392685 12.430084244568572 0.038030908739052155 -0.018206944283080367 0.004867696119911479 -0.04713116646982964 -0.005985393344531378 0.02095241541113808 0.018137213313654366 -0.00412516273718643 11.073145143957381 -0.021208229901552137 0.01776130589094083 -0.03539162859461577 0.04148424558994606 -0.0489823796287211 0.0025622643903045472 -0.04094170396674187 -0.011107638661813522 4.790722972611944 0.005794069720418078 -0.015028965800828457 0.039257242703523494 -0.02895503580843782 -0.008602693795126225 -0.028581050126444102 -0.03121615094656984 0.008645409597352237 -5.613504736817157 0.020506303174944118 -0.026952400802619528 -6.67502325916451 0.03789675535194027 0.024040737479903814 -6.7021618791597675 0.015001383343280078 -0.008551626371338304 0.03881066129576793 0.005964844929536038 0.021398673090390022 8.051914734764711 3.4683084330623517 -19.19070105449959 0.002227228308270136 10.367139729346366 0.0020147626873169983 -5.650610244448787 -15.639965359772795 3.23589932866094 0.03233627750112745 -0.01307296558890601 0.007235750490604224 -0.0398153209789634 4.665559550522852 -0.007814144365905768 12.410400510279105 -8.232233852588292 6.848485607507772 0.01829916751391374 46.395405231758886 -0.0038201376656661684 -4.297947362843636 -14.712313450947152 -3.8279007641631733 -0.010579044192496227 -0.042604415580634665 0.017576680065647794 -0.007882752639602168 -10.709820663179404 0.004732898009200402 
-0.04502958586533378 0.022634636382836318 0.022208945801233608 -0.012467054640356297 -0.006247497428309224 0.007446555003550121 2.32820854459357 3.5947723099415425 -1.676391985530787 -0.6714664490639636 3.620423524942301 0.4097875873381036 -0.8582123795715387 -1.1357271480098419 2.008774273876735 -0.9364440944165587 -0.7442842601968649 -0.23551728499229876 0.5168671016078165 12.239551728770826 -2.400769734869768 0.18139980035175537 -0.7275886942510077 -7.500815497314356 1.0597627941847452 -16.725242974978908 -0.6234046855832307 -9.892188640567342 3.536585828579123 -15.444852813102209 74.32240218234313 -12.402236173990552 28.370859055695014 21.5900887102189 4.881395176171561 81.11691156321312 16.41674151673781 -0.4691106892322913 -5.133338666069912 4.516424912081289 -0.15311370694764603 -1.5976955564634723 -0.006328235663936774 -0.03652958800187212 -56.20041332361436 -0.005877085182233178 -0.0017065118405270223 -56.28176542216663 -38.75351560383117 0.018010927652821695 -0.012519447874481981 -0.019923667113503567 0.047696347614687676 0.01624717984715545 0.016319371826358696 0.013186870152101685 0.021152984439875195 -36.670751719296206 0.03278022763007812 0.04861442412480967 0.03157473081516245 -0.04300107637395596 -0.01171461303326626 -0.030422133688729223 0.020144960828625713 -0.046907648125488505 -19.75664192578154 0.012579729080811517 0.003143855040493296 0.03353358926876085 0.006889670902366431 -0.008730169979760165 -0.02102337221258699 -0.0005224134837713376 -0.0002525066051124274 24.02173552899555 0.036528537304815194 -0.01964815648618949 28.883331325817295 -0.02224749266271169 -0.04075268412787843 28.844167366554878 0.020439967415134902 0.00027098508802661763 7.100876285959282 1.8946725212133202 13.805938534557145 -75.22010109938446 4.358914865480169 -14.055798116057586 -5.308909238187429 16.041585709383202 -49.323742614061146 -20.589814433505623 6.904246964397257 -3.4124181902297654 -0.4293692921945619 0.097011567916456 -8.105224050499583 -0.025635503131241983 -0.012409478841457468 44.609724199281565 0.0464911284078085 -0.004285146823291389 44.61000350458154 12.475091540155336 0.03720316761035652 -0.020741516196176868 0.010913011281761587 0.009115070015604668 0.04761082499594689 -0.03547123373310909 0.01996721600172409 0.021319784986005265 11.104711001844535 -0.044775313018727815 0.018641707243622206 -0.047546045350068115 -0.03587642738230682 -0.00196866261018138 0.024689509344774978 -0.005014925056324356 0.016903856426762592 4.813414041113527 -0.0028109451674500252 0.01197383624730833 0.034422760550715775 -0.0043581493952499425 0.02835625899589824 -0.026943537313796145 -0.013120069688986812 0.010707348779285154 -5.611073528811175 -0.026576563695266744 -0.04078947334607365 -6.719159669404883 -0.03414906763939839 -0.024637552718524934 -6.761806060156042 -0.0006885256501705895 0.022370355223256963 -0.00949831657328346 0.03639820895329609 -0.01193880942828827 8.036725154103156 3.4943178597875275 -19.21853719036354 -0.006032981940837851 10.439241829456236 0.04722461576967331 -5.666724105776845 -15.699460099049933 3.1908844795789895 -0.04250332910246559 -0.016557054415252966 -0.01441169473679957 -0.030952566361796562 4.7073854333460945 -0.0006144312191226412 12.502831809674168 -8.265097000822594 6.886280204689056 -0.01080860842373347 46.34523993243503 0.0015620731715416507 -4.2817482292592635 -14.716724934296964 -3.8261144651716705 -0.0296014240647115 0.04448685278928687 -0.04104137415229411 0.019793389201817117 -10.775256512112934 -0.02194662238491065 
-0.001992556574206212 -0.027272997008064143 0.007519963485482218 -0.004647358908572177 -0.043324976885766975 -0.008427076713045099 2.0144203486048484 3.485557501637198 -1.5915584165518317 -0.6836209343296691 3.561902978654392 0.4033968566386993 -0.867223252183518 -1.205433198801604 2.1364366178083527 -0.9370559858801315 -0.6892068977437845 -0.20288423043934434 0.6296084847441141 12.256991008881297 -2.349434041070455 0.10348596667243254 -0.7787552878391053 -7.487203834261647 1.043596680669652 -16.585895046765916 -0.6539754980376875 -9.721091037126355 3.583766337439093 -15.442462359157076 73.24329745215124 -13.396976135072409 29.52266013871054 20.420900618510746 4.861615259958193 81.86822388940475 16.615120279382452 -0.4304029103918561 -4.832929415204537 4.501281548130114 -0.11702460132793735 -1.5781065000491283 0.010405975303238005 0.02637359029114359 -56.21256006054388 0.0012542901808292417 -0.009261134140168725 -56.265640482009815 -38.73007692966205 -0.013556208337747941 0.018084037116134523 -0.008130763194701993 -0.04590741746082648 -0.033270291108875666 0.02502138684559467 0.005810112341329154 0.04828724887291906 -36.71684807832631 -0.03496598165528483 -0.0351437538265186 -0.010938650813739143 0.03512921485726187 -0.006464528870300594 -0.008520917964771967 -0.0016402339088232311 0.035611346973640386 -19.776919576342333 0.013760279240895826 0.049849894749024466 -0.002196274127999176 -0.048008264060852096 -0.047434805266385015 0.032551216210534695 0.01564277556032134 0.04365890150920839 24.075514589989353 -0.047143002560988814 -0.017108492977288104 28.863076567365994 -0.0008643403839697857 0.007045022639588069 28.870388674833144 0.028855947454699216 0.004122422719610823 6.7170336757094224 1.8224067611604238 13.820247534489978 -75.48232058258573 3.479092076675858 -13.357555071141809 -1.8305383301344649 17.161615708531695 -46.395820460939596 -20.497236391477983 8.863611516825182 -4.572488743673952 -0.4565476895245443 0.025932147215703902 -8.149154348979687 0.004044169440282206 0.01345928621944303 44.5823381690434 -0.021480419148568505 0.032082596309520726 44.52728370939708 12.46180988454687 -0.043028233097481564 -0.002432255166369567 0.0030911101014920042 -0.0033516120946559583 0.023778403390131292 0.009015896728391152 -0.01819204498973927 0.016373151391561654 11.107749078024412 -0.03852038185338127 -0.0034565948327865375 -0.04525550289179121 0.03748287662245159 0.03303219104648256 0.021562198777133265 -0.0454519222329217 -0.004238359079342715 4.765741138038149 -0.014558004361356243 0.012546964455905973 -0.030067243665921558 0.02963431461624104 0.01626023035141021 -0.00856107291750701 -0.004500023471368273 -0.028912640436626367 -5.600927707276803 0.037804531417876396 0.00866051395839904 -6.753232179840085 0.02177228491191652 -0.012380265132775405 -6.717313476211353 -0.03749048931093557 -0.014688820919774428 0.029997452763272054 0.02846821315595667 -0.01149110654279949 8.056869790916593 3.5070459878148883 -19.24154476789329 0.027514179263371345 10.360682534070794 -0.03437028104452404 -5.617223883579687 -15.629733463174087 3.223743152600679 0.033506569924034724 -0.01978952975795031 -0.041718753512832996 -0.024820122084267045 4.687351168135678 -0.007144194086561525 12.468419915621094 -8.236259035548327 6.89061274913022 -0.02664582903505454 46.352406096535134 -0.010810850273359289 -4.34277026404748 -14.699484774149148 -3.8107769814190453 -0.04641944926570436 0.015848175579705193 -0.01449359217956354 -0.022141028133766377 -10.769368409902194 -0.008093257593267757 
